Coordinates
version=1
nRows=10
nColumns=63
inDegrees=yes

Units are S.I. units (second, meters, Newtons, ...)
If the header above contains a line with 'inDegrees', this indicates whether rotational values are in degrees (yes) or radians (no).

endheader
time	pelvis_tilt	pelvis_list	pelvis_rotation	pelvis_tx	pelvis_ty	pelvis_tz	hip_flexion_r	hip_adduction_r	hip_rotation_r	knee_angle_r	knee_angle_r_beta	ankle_angle_r	subtalar_angle_r	mtp_angle_r	hip_flexion_l	hip_adduction_l	hip_rotation_l	knee_angle_l	knee_angle_l_beta	ankle_angle_l	subtalar_angle_l	mtp_angle_l	L5_S1_Flex_Ext	L5_S1_Lat_Bending	L5_S1_axial_rotation	L4_L5_Flex_Ext	L4_L5_Lat_Bending	L4_L5_axial_rotation	L3_L4_Flex_Ext	L3_L4_Lat_Bending	L3_L4_axial_rotation	L2_L3_Flex_Ext	L2_L3_Lat_Bending	L2_L3_axial_rotation	L1_L2_Flex_Ext	L1_L2_Lat_Bending	L1_L2_axial_rotation	L1_T12_Flex_Ext	L1_T12_Lat_Bending	L1_T12_axial_rotation	Abs_r3	Abs_r2	Abs_r1	Abs_t1	Abs_t2	neck_flexion	neck_bending	neck_rotation	arm_flex_r	arm_add_r	arm_rot_r	elbow_flex_r	pro_sup_r	wrist_flex_r	wrist_dev_r	arm_flex_l	arm_add_l	arm_rot_l	elbow_flex_l	pro_sup_l	wrist_flex_l	wrist_dev_l
      5.57627119	     -6.99097551	      0.67744335	     88.27130257	      0.33771613	      0.97253710	      0.42371320	      2.42650757	     -2.01593596	      4.27644922	     15.99427089	      0.27915269	     30.24491274	    -13.37604463	      0.00000000	      3.70443932	      2.13388736	      4.17724414	     15.41182129	      0.26898703	     31.27411447	     -3.41793692	      0.00000000	      0.16513605	      0.24560996	      0.72089427	      0.30667416	      0.32666125	      0.76595017	      0.27130202	      0.59717607	      0.76595017	      0.18873399	      0.59717607	      0.63078249	      0.15334534	      0.50084784	      0.58572660	      0.09435874	      0.38044983	      0.54067071	      1.17955029	      2.77838903	      4.00939769	      0.00000000	      0.00000000	     27.26055835	     -2.08954873	     14.00009434	      5.72831573	    -14.15993341	     59.24731547	     52.39521936	     57.84057661	      9.03172794	      7.30099652	     24.71203172	    -13.88160562	     92.88956732	     56.11012525	     32.41522049	     -3.11841611	     -8.22637373
      5.59322034	     -6.97950519	      0.79911455	     88.22221774	      0.33787584	      0.97295800	      0.42394386	      2.33618711	     -2.01055469	      4.38608296	     15.96152426	      0.27858115	     30.25928533	    -13.44630844	      0.00000000	      3.64843969	      2.11718754	      4.14957868	     15.51675101	      0.27081839	     31.18480173	     -3.47936855	      0.00000000	      0.14640628	      0.24860585	      0.69335194	      0.27189109	      0.33064577	      0.73668644	      0.24053087	      0.60446025	      0.73668644	      0.16732773	      0.60446025	      0.60668295	      0.13595287	      0.50695704	      0.56334846	      0.08365655	      0.38509045	      0.52001396	      1.04576539	      2.81227904	      3.85621551	      0.00000000	      0.00000000	     27.15973831	     -2.17951474	     14.01585431	      5.88782893	    -13.98086541	     59.14172746	     52.31599410	     57.93014944	      9.06127770	      6.95413340	     24.61256793	    -14.19516017	     91.98662337	     56.38333641	     32.20966396	     -3.45476800	     -8.78475503
      5.61016949	     -6.95938245	      0.80064657	     88.21442834	      0.33786098	      0.97324488	      0.42445073	      2.40378438	     -2.00572203	      4.44278962	     15.91478687	      0.27776543	     30.33058274	    -13.45030480	      0.00000000	      3.68697305	      2.09832512	      4.15697242	     15.50745063	      0.27065607	     31.09933297	     -3.46696801	      0.00000000	      0.14316862	      0.25109633	      0.68233759	      0.26587844	      0.33395812	      0.72498369	      0.23521172	      0.61051562	      0.72498369	      0.16362741	      0.61051562	      0.59704539	      0.13294638	      0.51203564	      0.55439930	      0.08180655	      0.38894822	      0.51175320	      1.02263913	      2.84045194	      3.79495700	      0.00000000	      0.00000000	     27.03016799	     -2.25015071	     14.03893420	      6.07579022	    -13.90897698	     59.07248695	     52.34923581	     57.93296186	      9.05224918	      6.89916815	     24.83157530	    -14.26012624	     91.77851552	     56.33500035	     32.19356310	     -3.52851004	     -8.85400150
      5.62711864	     -6.87296312	      0.87279164	     88.32210733	      0.33768554	      0.97371551	      0.42455317	      2.36843049	     -1.87476782	      4.90928989	     15.88480081	      0.27724208	     30.26958077	    -14.11284404	      0.00000000	      3.69819835	      2.03625164	      4.31372719	     15.63536276	      0.27288856	     30.98506237	     -3.66969756	      0.00000000	      0.13404838	      0.27268040	      0.48292631	      0.24894124	      0.36266494	      0.51310921	      0.22022808	      0.66299513	      0.51310921	      0.15320389	      0.66299513	      0.42256052	      0.12447732	      0.55604988	      0.39237763	      0.07659524	      0.42238194	      0.36219474	      0.95749415	      3.08461526	      2.68589128	      0.00000000	      0.00000000	     26.79954769	     -2.82939115	     15.10857943	      7.03260118	    -13.73461998	     60.81868291	     51.78027225	     58.42459986	      9.07663539	      5.76473053	     23.73434671	    -14.76775219	     89.56576123	     56.73696573	     33.31406526	     -6.15345040	     -9.76550054
      5.64406780	     -6.88740762	      0.91994164	     88.43159806	      0.33746494	      0.97394035	      0.42471798	      2.41145617	     -1.89531855	      5.02616568	     15.91895302	      0.27783814	     30.50724636	    -14.22010109	      0.00000000	      3.72896050	      2.09978748	      4.60465397	     15.72771279	      0.27450037	     30.99403327	     -4.00681714	      0.00000000	      0.12465274	      0.27648198	      0.39013597	      0.23149261	      0.36772103	      0.41451946	      0.20479199	      0.67223828	      0.41451946	      0.14246562	      0.67223828	      0.34136897	      0.11575254	      0.56380205	      0.31698547	      0.07122658	      0.42827059	      0.29260197	      0.89038207	      3.12761945	      2.16981920	      0.00000000	      0.00000000	     26.67936182	     -3.44117148	     15.62432425	      7.42315771	    -13.67808761	     61.70492023	     51.61822959	     57.04055066	      8.56434798	      5.36779501	     23.30129569	    -14.89423080	     88.30185299	     56.62245853	     35.40884286	     -6.85206049	     -9.08899661
      5.66101695	     -6.78511294	      0.91260660	     88.52462037	      0.33710142	      0.97405193	      0.42464844	      2.48966680	     -1.83893792	      4.84110999	     15.92785482	      0.27799351	     30.87281010	    -13.82801458	      0.00000000	      3.80609650	      1.97013261	      4.29022072	     15.81917790	      0.27609674	     31.35410770	     -3.44906735	      0.00000000	      0.12689107	      0.29509880	      0.33575004	      0.23564940	      0.39248141	      0.35673442	      0.20846933	      0.71750323	      0.35673442	      0.14502380	      0.71750323	      0.29378128	      0.11783104	      0.60176548	      0.27279691	      0.07250556	      0.45710805	      0.25181253	      0.90637020	      3.33821669	      1.86734099	      0.00000000	      0.00000000	     26.63708700	     -4.21905390	     15.84285620	      7.50890125	    -13.76771605	     62.05551287	     51.64081873	     55.57621866	      8.32350863	      5.90331044	     22.98013942	    -14.65861427	     87.75723302	     56.03916695	     36.99524246	     -6.95872065	     -9.24126582
      5.67796610	     -6.73235069	      0.91072377	     88.42910799	      0.33701237	      0.97400145	      0.42448343	      2.59673942	     -1.76315213	      5.23898111	     16.00195266	      0.27928676	     31.08188700	    -14.04787490	      0.00000000	      3.83561860	      1.94389072	      4.25637265	     15.85649747	      0.27674809	     31.64107286	     -3.55729827	      0.00000000	      0.12661151	      0.30477145	      0.38376584	      0.23513023	      0.40534603	      0.40775121	      0.20801004	      0.74102131	      0.40775121	      0.14470429	      0.74102131	      0.33579511	      0.11757144	      0.62148994	      0.31180975	      0.07234581	      0.47209098	      0.28782438	      0.90437332	      3.44763561	      2.13439049	      0.00000000	      0.00000000	     26.62123203	     -4.75931362	     15.74394262	      7.30921555	    -13.91573052	     61.88199016	     51.68425680	     55.08698917	      8.18415226	      6.36759817	     22.98175539	    -14.20616314	     87.99435904	     55.38212221	     37.80931734	     -6.73819459	     -9.13938130
      5.69491525	     -6.70251194	      0.88447804	     88.41839652	      0.33687517	      0.97389173	      0.42425066	      2.69198174	     -1.71204047	      5.49815058	     16.06439881	      0.28037665	     31.20994487	    -14.27191245	      0.00000000	      3.86885663	      1.96010994	      4.43626832	     15.85052955	      0.27664393	     31.87740421	     -3.81788416	      0.00000000	      0.13028079	      0.30912689	      0.46203143	      0.24194446	      0.41113876	      0.49090840	      0.21403831	      0.75161112	      0.49090840	      0.14889792	      0.75161112	      0.40427750	      0.12097874	      0.63037155	      0.37540054	      0.07444244	      0.47883755	      0.34652357	      0.93058266	      3.49690519	      2.56968022	      0.00000000	      0.00000000	     26.61157961	     -5.11265372	     15.41631850	      6.92424307	    -14.08136189	     61.33247260	     51.73598818	     55.35532358	      8.10624351	      7.11596261	     23.09067153	    -13.58205668	     88.59660620	     54.54540951	     38.10664524	     -5.81426510	     -8.96902886
      5.71186441	     -6.73680455	      0.86652777	     88.51400971	      0.33682482	      0.97376249	      0.42394207	      2.73946720	     -1.74147039	      5.50408131	     16.13484137	      0.28160611	     31.35129622	    -14.32394305	      0.00000000	      3.88544481	      2.01397717	      4.56469029	     15.83967282	      0.27645444	     32.10205700	     -3.79801206	      0.00000000	      0.13269390	      0.30298490	      0.49671308	      0.24642585	      0.40296991	      0.52775764	      0.21800282	      0.73667748	      0.52775764	      0.15165586	      0.73667748	      0.43462394	      0.12321956	      0.61784680	      0.40357937	      0.07582130	      0.46932361	      0.37253481	      0.94781929	      3.42742575	      2.76256912	      0.00000000	      0.00000000	     26.65599313	     -5.10360941	     15.37860383	      6.76841399	    -14.13865727	     61.43221212	     51.47763250	     55.48106149	      8.05676878	      7.27646542	     22.90025622	    -13.15043748	     88.80498471	     54.05389576	     38.08251181	     -5.79065936	     -8.78915731
      5.72881356	     -6.64214086	      0.82116298	     88.50842768	      0.33649446	      0.97371965	      0.42399327	      2.85589888	     -1.65777303	      5.54637138	     16.25550422	      0.28371207	     31.21742338	    -14.49272958	      0.00000000	      3.98441684	      2.02469342	      5.17033845	     15.93221512	      0.27806961	     31.97492680	     -4.72115315	      0.00000000	      0.13629254	      0.31461423	      0.65527429	      0.25310888	      0.41843693	      0.69622893	      0.22391502	      0.76495304	      0.69622893	      0.15576875	      0.76495304	      0.57336500	      0.12656126	      0.64156134	      0.53241036	      0.07787756	      0.48733745	      0.49145571	      0.97352402	      3.55897912	      3.64443899	      0.00000000	      0.00000000	     26.62752638	     -5.51248294	     14.44309218	      5.85311635	    -14.22566615	     58.49826104	     51.53008505	     64.79613505	      9.29866945	      8.50024011	     23.46832052	    -12.05349536	     90.54742711	     52.64265586	     37.43526926	     -3.35405326	     -8.99904156
